<svg xmlns="http://www.w3.org/2000/svg" viewBox="0 0 64 64" role="img" aria-label="Heart favicon">
  <defs>
    <linearGradient id="bg" x1="0" y1="0" x2="1" y2="1">
      <stop offset="0%" stop-color="#fff7f1"/>
      <stop offset="100%" stop-color="#efd5d0"/>
    </linearGradient>
    <linearGradient id="heart" x1="0" y1="0" x2="1" y2="1">
      <stop offset="0%" stop-color="#c46a7b"/>
      <stop offset="100%" stop-color="#8f314f"/>
    </linearGradient>
  </defs>
  <rect width="64" height="64" rx="18" fill="url(#bg)"/>
  <path
    d="M32 52C19 43.4 11 35.4 11 24.4C11 17.6 16.1 13 22.2 13C26.4 13 30.2 15.1 32 18.4C33.8 15.1 37.6 13 41.8 13C47.9 13 53 17.6 53 24.4C53 35.4 45 43.4 32 52Z"
    fill="url(#heart)"
  />
  <path
    d="M32 48.4C20.7 40.8 14.8 34.4 14.8 25.1C14.8 19.7 18.6 16 23.1 16C26.9 16 30 18.1 31.6 21.5L32 22.3L32.4 21.5C34 18.1 37.1 16 40.9 16C45.4 16 49.2 19.7 49.2 25.1C49.2 34.4 43.3 40.8 32 48.4Z"
    fill="none"
    stroke="rgba(255,255,255,0.38)"
    stroke-width="1.5"
  />
</svg>
